{
    "asset" : {
        "generator" : "Khronos glTF Blender I/O v1.6.16",
        "version" : "2.0"
    },
    "scene" : 0,
    "scenes" : [
        {
            "name" : "Scene",
            "nodes" : [
                0
            ]
        }
    ],
    "nodes" : [
        {
            "mesh" : 0,
            "name" : "Tractor01",
            "scale" : [
                0.0106747355312109,
                0.005370270926505327,
                0.006241456605494022
            ],
            "translation" : [
                1.1063249111175537,
                0.4881979823112488,
                2.9924001693725586
            ]
        }
    ],
    "materials" : [
        {
            "doubleSided" : true,
            "name" : "07 - Default",
            "pbrMetallicRoughness" : {
                "baseColorFactor" : [
                    0.13333334028720856,
                    0.13333334028720856,
                    0.13333334028720856,
                    1
                ],
                "roughnessFactor" : 0.858578622341156
            }
        },
        {
            "doubleSided" : true,
            "name" : "02 - Default",
            "pbrMetallicRoughness" : {
                "baseColorFactor" : [
                    1,
                    0,
                    0,
                    1
                ],
                "roughnessFactor" : 0.858578622341156
            }
        },
        {
            "doubleSided" : true,
            "name" : "03 - Default",
            "pbrMetallicRoughness" : {
                "baseColorFactor" : [
                    0.917647123336792,
                    1,
                    0,
                    1
                ],
                "roughnessFactor" : 0.858578622341156
            }
        },
        {
            "doubleSided" : true,
            "name" : "09 - Default",
            "pbrMetallicRoughness" : {
                "baseColorFactor" : [
                    0.5882353186607361,
                    0.5882353186607361,
                    0.5882353186607361,
                    1
                ],
                "roughnessFactor" : 0.858578622341156
            }
        },
        {
            "doubleSided" : true,
            "name" : "08 - Default",
            "pbrMetallicRoughness" : {
                "baseColorFactor" : [
                    0.09019608050584793,
                    0.22745099663734436,
                    0.6784313917160034,
                    0.8999999761581421
                ],
                "roughnessFactor" : 0.858578622341156
            }
        },
        {
            "doubleSided" : true,
            "name" : "14 - Default",
            "pbrMetallicRoughness" : {
                "baseColorFactor" : [
                    1,
                    0.11764706671237946,
                    0,
                    1
                ],
                "roughnessFactor" : 0.858578622341156
            }
        }
    ],
    "meshes" : [
        {
            "name" : "\u7f51\u683c.005",
            "primitives" : [
                {
                    "attributes" : {
                        "POSITION" : 0,
                        "NORMAL" : 1,
                        "TEXCOORD_0" : 2
                    },
                    "indices" : 3,
                    "material" : 0
                },
                {
                    "attributes" : {
                        "POSITION" : 4,
                        "NORMAL" : 5,
                        "TEXCOORD_0" : 6
                    },
                    "indices" : 7,
                    "material" : 1
                },
                {
                    "attributes" : {
                        "POSITION" : 8,
                        "NORMAL" : 9,
                        "TEXCOORD_0" : 10
                    },
                    "indices" : 11,
                    "material" : 2
                },
                {
                    "attributes" : {
                        "POSITION" : 12,
                        "NORMAL" : 13,
                        "TEXCOORD_0" : 14
                    },
                    "indices" : 15,
                    "material" : 3
                },
                {
                    "attributes" : {
                        "POSITION" : 16,
                        "NORMAL" : 17,
                        "TEXCOORD_0" : 18
                    },
                    "indices" : 19,
                    "material" : 4
                },
                {
                    "attributes" : {
                        "POSITION" : 20,
                        "NORMAL" : 21,
                        "TEXCOORD_0" : 22
                    },
                    "indices" : 23,
                    "material" : 5
                }
            ]
        }
    ],
    "accessors" : [
        {
            "bufferView" : 0,
            "componentType" : 5126,
            "count" : 3244,
            "max" : [
                -40.85884094238281,
                173.7594757080078,
                100.23838806152344
            ],
            "min" : [
                -95.05455017089844,
                17.636436462402344,
                -68.3558120727539
            ],
            "type" : "VEC3"
        },
        {
            "bufferView" : 1,
            "componentType" : 5126,
            "count" : 3244,
            "type" : "VEC3"
        },
        {
            "bufferView" : 2,
            "componentType" : 5126,
            "count" : 3244,
            "type" : "VEC2"
        },
        {
            "bufferView" : 3,
            "componentType" : 5123,
            "count" : 3480,
            "type" : "SCALAR"
        },
        {
            "bufferView" : 4,
            "componentType" : 5126,
            "count" : 8,
            "max" : [
                -41.74864959716797,
                117.91028594970703,
                -37.18968200683594
            ],
            "min" : [
                -93.40008544921875,
                110.85963439941406,
                -37.18968200683594
            ],
            "type" : "VEC3"
        },
        {
            "bufferView" : 5,
            "componentType" : 5126,
            "count" : 8,
            "type" : "VEC3"
        },
        {
            "bufferView" : 6,
            "componentType" : 5126,
            "count" : 8,
            "type" : "VEC2"
        },
        {
            "bufferView" : 7,
            "componentType" : 5123,
            "count" : 12,
            "type" : "SCALAR"
        },
        {
            "bufferView" : 8,
            "componentType" : 5126,
            "count" : 1854,
            "max" : [
                -39.652137756347656,
                172.31546020507812,
                109.31141662597656
            ],
            "min" : [
                -96.26124572753906,
                37.64812469482422,
                -76.91753387451172
            ],
            "type" : "VEC3"
        },
        {
            "bufferView" : 9,
            "componentType" : 5126,
            "count" : 1854,
            "type" : "VEC3"
        },
        {
            "bufferView" : 10,
            "componentType" : 5126,
            "count" : 1854,
            "type" : "VEC2"
        },
        {
            "bufferView" : 11,
            "componentType" : 5123,
            "count" : 2262,
            "type" : "SCALAR"
        },
        {
            "bufferView" : 12,
            "componentType" : 5126,
            "count" : 854,
            "max" : [
                -44.104644775390625,
                178.8583526611328,
                104.52827453613281
            ],
            "min" : [
                -91.80874633789062,
                32.656002044677734,
                -52.20435333251953
            ],
            "type" : "VEC3"
        },
        {
            "bufferView" : 13,
            "componentType" : 5126,
            "count" : 854,
            "type" : "VEC3"
        },
        {
            "bufferView" : 14,
            "componentType" : 5126,
            "count" : 854,
            "type" : "VEC2"
        },
        {
            "bufferView" : 15,
            "componentType" : 5123,
            "count" : 948,
            "type" : "SCALAR"
        },
        {
            "bufferView" : 16,
            "componentType" : 5126,
            "count" : 92,
            "max" : [
                -50.93377685546875,
                162.92105102539062,
                19.96117401123047
            ],
            "min" : [
                -84.9796142578125,
                101.92430114746094,
                -40.94855499267578
            ],
            "type" : "VEC3"
        },
        {
            "bufferView" : 17,
            "componentType" : 5126,
            "count" : 92,
            "type" : "VEC3"
        },
        {
            "bufferView" : 18,
            "componentType" : 5126,
            "count" : 92,
            "type" : "VEC2"
        },
        {
            "bufferView" : 19,
            "componentType" : 5123,
            "count" : 114,
            "type" : "SCALAR"
        },
        {
            "bufferView" : 20,
            "componentType" : 5126,
            "count" : 66,
            "max" : [
                -65.10502624511719,
                182.6031494140625,
                3.944713592529297
            ],
            "min" : [
                -70.04371643066406,
                173.75946044921875,
                -4.501903533935547
            ],
            "type" : "VEC3"
        },
        {
            "bufferView" : 21,
            "componentType" : 5126,
            "count" : 66,
            "type" : "VEC3"
        },
        {
            "bufferView" : 22,
            "componentType" : 5126,
            "count" : 66,
            "type" : "VEC2"
        },
        {
            "bufferView" : 23,
            "componentType" : 5123,
            "count" : 66,
            "type" : "SCALAR"
        }
    ],
    "bufferViews" : [
        {
            "buffer" : 0,
            "byteLength" : 38928,
            "byteOffset" : 0
        },
        {
            "buffer" : 0,
            "byteLength" : 38928,
            "byteOffset" : 38928
        },
        {
            "buffer" : 0,
            "byteLength" : 25952,
            "byteOffset" : 77856
        },
        {
            "buffer" : 0,
            "byteLength" : 6960,
            "byteOffset" : 103808
        },
        {
            "buffer" : 0,
            "byteLength" : 96,
            "byteOffset" : 110768
        },
        {
            "buffer" : 0,
            "byteLength" : 96,
            "byteOffset" : 110864
        },
        {
            "buffer" : 0,
            "byteLength" : 64,
            "byteOffset" : 110960
        },
        {
            "buffer" : 0,
            "byteLength" : 24,
            "byteOffset" : 111024
        },
        {
            "buffer" : 0,
            "byteLength" : 22248,
            "byteOffset" : 111048
        },
        {
            "buffer" : 0,
            "byteLength" : 22248,
            "byteOffset" : 133296
        },
        {
            "buffer" : 0,
            "byteLength" : 14832,
            "byteOffset" : 155544
        },
        {
            "buffer" : 0,
            "byteLength" : 4524,
            "byteOffset" : 170376
        },
        {
            "buffer" : 0,
            "byteLength" : 10248,
            "byteOffset" : 174900
        },
        {
            "buffer" : 0,
            "byteLength" : 10248,
            "byteOffset" : 185148
        },
        {
            "buffer" : 0,
            "byteLength" : 6832,
            "byteOffset" : 195396
        },
        {
            "buffer" : 0,
            "byteLength" : 1896,
            "byteOffset" : 202228
        },
        {
            "buffer" : 0,
            "byteLength" : 1104,
            "byteOffset" : 204124
        },
        {
            "buffer" : 0,
            "byteLength" : 1104,
            "byteOffset" : 205228
        },
        {
            "buffer" : 0,
            "byteLength" : 736,
            "byteOffset" : 206332
        },
        {
            "buffer" : 0,
            "byteLength" : 228,
            "byteOffset" : 207068
        },
        {
            "buffer" : 0,
            "byteLength" : 792,
            "byteOffset" : 207296
        },
        {
            "buffer" : 0,
            "byteLength" : 792,
            "byteOffset" : 208088
        },
        {
            "buffer" : 0,
            "byteLength" : 528,
            "byteOffset" : 208880
        },
        {
            "buffer" : 0,
            "byteLength" : 132,
            "byteOffset" : 209408
        }
    ],
    "buffers" : [
        {
            "byteLength" : 209540,
            "uri" : "data:application/octet-stream;base64,"
        }
    ]
}
