{
    "asset" : {
        "generator" : "Khronos glTF Blender I/O v1.6.16",
        "version" : "2.0"
    },
    "scene" : 0,
    "scenes" : [
        {
            "name" : "Scene",
            "nodes" : [
                0
            ]
        }
    ],
    "nodes" : [
        {
            "mesh" : 0,
            "name" : "Tractor01",
            "scale" : [
                0.0106747355312109,
                0.005370270926505327,
                0.006241456605494022
            ],
            "translation" : [
                0.004344816319644451,
                0.3297761380672455,
                0.0007962504751048982
            ]
        }
    ],
    "materials" : [
        {
            "doubleSided" : true,
            "name" : "07 - Default.001",
            "pbrMetallicRoughness" : {
                "baseColorFactor" : [
                    0.0495510958135128,
                    0.0495510958135128,
                    0.0495510958135128,
                    1
                ],
                "roughnessFactor" : 0.858578622341156
            }
        },
        {
            "doubleSided" : true,
            "name" : "02 - Default.001",
            "pbrMetallicRoughness" : {
                "baseColorFactor" : [
                    1,
                    0,
                    0,
                    1
                ],
                "roughnessFactor" : 0.858578622341156
            }
        },
        {
            "doubleSided" : true,
            "name" : "03 - Default.001",
            "pbrMetallicRoughness" : {
                "baseColorFactor" : [
                    1,
                    0.48348268866539,
                    0.05438300594687462,
                    1
                ],
                "roughnessFactor" : 0.4333817660808563
            }
        },
        {
            "doubleSided" : true,
            "name" : "09 - Default.001",
            "pbrMetallicRoughness" : {
                "baseColorFactor" : [
                    0.5882353186607361,
                    0.5882353186607361,
                    0.5882353186607361,
                    1
                ],
                "roughnessFactor" : 0.858578622341156
            }
        },
        {
            "alphaMode" : "BLEND",
            "doubleSided" : true,
            "name" : "08 - Default.001",
            "pbrMetallicRoughness" : {
                "baseColorFactor" : [
                    0.2214287519454956,
                    0.5346894264221191,
                    1,
                    1
                ],
                "metallicFactor" : 0.6734693646430969,
                "roughnessFactor" : 0.2639455795288086
            }
        },
        {
            "doubleSided" : true,
            "name" : "14 - Default.001",
            "pbrMetallicRoughness" : {
                "baseColorFactor" : [
                    1,
                    0.11764706671237946,
                    0,
                    1
                ],
                "roughnessFactor" : 0.858578622341156
            }
        }
    ],
    "meshes" : [
        {
            "name" : "\u7f51\u683c.001",
            "primitives" : [
                {
                    "attributes" : {
                        "POSITION" : 0,
                        "NORMAL" : 1,
                        "TEXCOORD_0" : 2
                    },
                    "indices" : 3,
                    "material" : 0
                },
                {
                    "attributes" : {
                        "POSITION" : 4,
                        "NORMAL" : 5,
                        "TEXCOORD_0" : 6
                    },
                    "indices" : 7,
                    "material" : 1
                },
                {
                    "attributes" : {
                        "POSITION" : 8,
                        "NORMAL" : 9,
                        "TEXCOORD_0" : 10
                    },
                    "indices" : 11,
                    "material" : 2
                },
                {
                    "attributes" : {
                        "POSITION" : 12,
                        "NORMAL" : 13,
                        "TEXCOORD_0" : 14
                    },
                    "indices" : 15,
                    "material" : 3
                },
                {
                    "attributes" : {
                        "POSITION" : 16,
                        "NORMAL" : 17,
                        "TEXCOORD_0" : 18
                    },
                    "indices" : 19,
                    "material" : 4
                },
                {
                    "attributes" : {
                        "POSITION" : 20,
                        "NORMAL" : 21,
                        "TEXCOORD_0" : 22
                    },
                    "indices" : 23,
                    "material" : 5
                }
            ]
        }
    ],
    "accessors" : [
        {
            "bufferView" : 0,
            "componentType" : 5126,
            "count" : 3342,
            "max" : [
                27.586883544921875,
                95.79138946533203,
                85.27042388916016
            ],
            "min" : [
                -26.60882568359375,
                -60.33164978027344,
                -83.32377624511719
            ],
            "type" : "VEC3"
        },
        {
            "bufferView" : 1,
            "componentType" : 5126,
            "count" : 3342,
            "type" : "VEC3"
        },
        {
            "bufferView" : 2,
            "componentType" : 5126,
            "count" : 3342,
            "type" : "VEC2"
        },
        {
            "bufferView" : 3,
            "componentType" : 5123,
            "count" : 3480,
            "type" : "SCALAR"
        },
        {
            "bufferView" : 4,
            "componentType" : 5126,
            "count" : 12,
            "max" : [
                26.69707489013672,
                39.94219970703125,
                -52.15764617919922
            ],
            "min" : [
                -24.954360961914062,
                32.89154815673828,
                -52.15764617919922
            ],
            "type" : "VEC3"
        },
        {
            "bufferView" : 5,
            "componentType" : 5126,
            "count" : 12,
            "type" : "VEC3"
        },
        {
            "bufferView" : 6,
            "componentType" : 5126,
            "count" : 12,
            "type" : "VEC2"
        },
        {
            "bufferView" : 7,
            "componentType" : 5123,
            "count" : 12,
            "type" : "SCALAR"
        },
        {
            "bufferView" : 8,
            "componentType" : 5126,
            "count" : 1966,
            "max" : [
                28.79358673095703,
                94.34737396240234,
                94.34345245361328
            ],
            "min" : [
                -27.815521240234375,
                -40.31996154785156,
                -91.885498046875
            ],
            "type" : "VEC3"
        },
        {
            "bufferView" : 9,
            "componentType" : 5126,
            "count" : 1966,
            "type" : "VEC3"
        },
        {
            "bufferView" : 10,
            "componentType" : 5126,
            "count" : 1966,
            "type" : "VEC2"
        },
        {
            "bufferView" : 11,
            "componentType" : 5123,
            "count" : 2262,
            "type" : "SCALAR"
        },
        {
            "bufferView" : 12,
            "componentType" : 5126,
            "count" : 896,
            "max" : [
                24.341079711914062,
                100.89026641845703,
                89.56031036376953
            ],
            "min" : [
                -23.363021850585938,
                -45.31208419799805,
                -67.17231750488281
            ],
            "type" : "VEC3"
        },
        {
            "bufferView" : 13,
            "componentType" : 5126,
            "count" : 896,
            "type" : "VEC3"
        },
        {
            "bufferView" : 14,
            "componentType" : 5126,
            "count" : 896,
            "type" : "VEC2"
        },
        {
            "bufferView" : 15,
            "componentType" : 5123,
            "count" : 948,
            "type" : "SCALAR"
        },
        {
            "bufferView" : 16,
            "componentType" : 5126,
            "count" : 97,
            "max" : [
                17.511947631835938,
                84.95296478271484,
                4.9932098388671875
            ],
            "min" : [
                -16.533889770507812,
                23.956214904785156,
                -55.91651916503906
            ],
            "type" : "VEC3"
        },
        {
            "bufferView" : 17,
            "componentType" : 5126,
            "count" : 97,
            "type" : "VEC3"
        },
        {
            "bufferView" : 18,
            "componentType" : 5126,
            "count" : 97,
            "type" : "VEC2"
        },
        {
            "bufferView" : 19,
            "componentType" : 5123,
            "count" : 114,
            "type" : "SCALAR"
        },
        {
            "bufferView" : 20,
            "componentType" : 5126,
            "count" : 66,
            "max" : [
                3.3406982421875,
                104.63506317138672,
                -11.023250579833984
            ],
            "min" : [
                -1.597991943359375,
                95.79137420654297,
                -19.469867706298828
            ],
            "type" : "VEC3"
        },
        {
            "bufferView" : 21,
            "componentType" : 5126,
            "count" : 66,
            "type" : "VEC3"
        },
        {
            "bufferView" : 22,
            "componentType" : 5126,
            "count" : 66,
            "type" : "VEC2"
        },
        {
            "bufferView" : 23,
            "componentType" : 5123,
            "count" : 66,
            "type" : "SCALAR"
        }
    ],
    "bufferViews" : [
        {
            "buffer" : 0,
            "byteLength" : 40104,
            "byteOffset" : 0
        },
        {
            "buffer" : 0,
            "byteLength" : 40104,
            "byteOffset" : 40104
        },
        {
            "buffer" : 0,
            "byteLength" : 26736,
            "byteOffset" : 80208
        },
        {
            "buffer" : 0,
            "byteLength" : 6960,
            "byteOffset" : 106944
        },
        {
            "buffer" : 0,
            "byteLength" : 144,
            "byteOffset" : 113904
        },
        {
            "buffer" : 0,
            "byteLength" : 144,
            "byteOffset" : 114048
        },
        {
            "buffer" : 0,
            "byteLength" : 96,
            "byteOffset" : 114192
        },
        {
            "buffer" : 0,
            "byteLength" : 24,
            "byteOffset" : 114288
        },
        {
            "buffer" : 0,
            "byteLength" : 23592,
            "byteOffset" : 114312
        },
        {
            "buffer" : 0,
            "byteLength" : 23592,
            "byteOffset" : 137904
        },
        {
            "buffer" : 0,
            "byteLength" : 15728,
            "byteOffset" : 161496
        },
        {
            "buffer" : 0,
            "byteLength" : 4524,
            "byteOffset" : 177224
        },
        {
            "buffer" : 0,
            "byteLength" : 10752,
            "byteOffset" : 181748
        },
        {
            "buffer" : 0,
            "byteLength" : 10752,
            "byteOffset" : 192500
        },
        {
            "buffer" : 0,
            "byteLength" : 7168,
            "byteOffset" : 203252
        },
        {
            "buffer" : 0,
            "byteLength" : 1896,
            "byteOffset" : 210420
        },
        {
            "buffer" : 0,
            "byteLength" : 1164,
            "byteOffset" : 212316
        },
        {
            "buffer" : 0,
            "byteLength" : 1164,
            "byteOffset" : 213480
        },
        {
            "buffer" : 0,
            "byteLength" : 776,
            "byteOffset" : 214644
        },
        {
            "buffer" : 0,
            "byteLength" : 228,
            "byteOffset" : 215420
        },
        {
            "buffer" : 0,
            "byteLength" : 792,
            "byteOffset" : 215648
        },
        {
            "buffer" : 0,
            "byteLength" : 792,
            "byteOffset" : 216440
        },
        {
            "buffer" : 0,
            "byteLength" : 528,
            "byteOffset" : 217232
        },
        {
            "buffer" : 0,
            "byteLength" : 132,
            "byteOffset" : 217760
        }
    ],
    "buffers" : [
        {
            "byteLength" : 217892,
            "uri" : "data:application/octet-stream;base64,"
        }
    ]
}
