{
    "asset" : {
        "generator" : "Khronos glTF Blender I/O v1.6.16",
        "version" : "2.0"
    },
    "scene" : 0,
    "scenes" : [
        {
            "name" : "Scene",
            "nodes" : [
                5
            ]
        }
    ],
    "nodes" : [
        {
            "mesh" : 0,
            "name" : "SHTV_Model_Car_Hatchback_SHTV_Material_Cars_Orange_0",
            "rotation" : [
                0,
                0.5909262299537659,
                0,
                0.8067256212234497
            ],
            "translation" : [
                -372.8689880371094,
                0,
                7.203449249267578
            ]
        },
        {
            "children" : [
                0
            ],
            "name" : "SHTV_Model_Car_Hatchback",
            "translation" : [
                1.52587890625e-05,
                0,
                -8.106231689453125e-06
            ]
        },
        {
            "children" : [
                1
            ],
            "name" : "SHTV_Prefab_Car_Hatchback",
            "rotation" : [
                0,
                0.15592485666275024,
                0,
                0.9877689480781555
            ],
            "translation" : [
                352.519287109375,
                0,
                -121.7100601196289
            ]
        },
        {
            "children" : [
                2
            ],
            "name" : "RootNode"
        },
        {
            "children" : [
                3
            ],
            "name" : "CarsSketchfabFree.fbx",
            "rotation" : [
                0.7071068286895752,
                0,
                0,
                0.7071068286895752
            ],
            "scale" : [
                0.009999999776482582,
                0.009999999776482582,
                0.009999999776482582
            ]
        },
        {
            "children" : [
                4
            ],
            "name" : "Sketchfab_model",
            "rotation" : [
                -0.7071068286895752,
                0,
                0,
                0.7071068286895752
            ],
            "scale" : [
                0.42545753717422485,
                0.42545753717422485,
                0.42545753717422485
            ]
        }
    ],
    "materials" : [
        {
            "doubleSided" : true,
            "emissiveFactor" : [
                1,
                1,
                1
            ],
            "emissiveTexture" : {
                "index" : 0
            },
            "name" : "SHTV_Material_Cars_Orange",
            "pbrMetallicRoughness" : {
                "baseColorTexture" : {
                    "index" : 1
                },
                "metallicFactor" : 0,
                "roughnessFactor" : 0.8211145401000977
            }
        },
        {
            "doubleSided" : true,
            "emissiveFactor" : [
                1,
                1,
                1
            ],
            "emissiveTexture" : {
                "index" : 2
            },
            "name" : "SHTV_Material_Cars_Gray",
            "pbrMetallicRoughness" : {
                "baseColorTexture" : {
                    "index" : 3
                },
                "metallicFactor" : 0,
                "roughnessFactor" : 0.8211145401000977
            }
        }
    ],
    "meshes" : [
        {
            "name" : "SHTV_Model_Car_Hatchback_SHTV_Material_Cars_Orange_0",
            "primitives" : [
                {
                    "attributes" : {
                        "POSITION" : 0,
                        "NORMAL" : 1,
                        "TEXCOORD_0" : 2,
                        "TEXCOORD_1" : 3
                    },
                    "indices" : 4,
                    "material" : 0
                },
                {
                    "attributes" : {
                        "POSITION" : 5,
                        "NORMAL" : 6,
                        "TEXCOORD_0" : 7,
                        "TEXCOORD_1" : 8
                    },
                    "indices" : 9,
                    "material" : 1
                }
            ]
        }
    ],
    "textures" : [
        {
            "sampler" : 0,
            "source" : 0
        },
        {
            "sampler" : 0,
            "source" : 1
        },
        {
            "sampler" : 0,
            "source" : 0
        },
        {
            "sampler" : 0,
            "source" : 2
        }
    ],
    "images" : [
        {
            "bufferView" : 5,
            "mimeType" : "image/png",
            "name" : "SHTV_Material_Cars_Red_emissive"
        },
        {
            "bufferView" : 6,
            "mimeType" : "image/png",
            "name" : "SHTV_Material_Cars_Orange_baseColor"
        },
        {
            "bufferView" : 12,
            "mimeType" : "image/png",
            "name" : "SHTV_Material_Cars_Gray_baseColor"
        }
    ],
    "accessors" : [
        {
            "bufferView" : 0,
            "componentType" : 5126,
            "count" : 1738,
            "max" : [
                111.9056396484375,
                128.06712341308594,
                192.6366424560547
            ],
            "min" : [
                -114.66644287109375,
                -41.00653839111328,
                -209.40951538085938
            ],
            "type" : "VEC3"
        },
        {
            "bufferView" : 1,
            "componentType" : 5126,
            "count" : 1738,
            "type" : "VEC3"
        },
        {
            "bufferView" : 2,
            "componentType" : 5126,
            "count" : 1738,
            "type" : "VEC2"
        },
        {
            "bufferView" : 3,
            "componentType" : 5126,
            "count" : 1738,
            "type" : "VEC2"
        },
        {
            "bufferView" : 4,
            "componentType" : 5123,
            "count" : 2976,
            "type" : "SCALAR"
        },
        {
            "bufferView" : 7,
            "componentType" : 5126,
            "count" : 1520,
            "max" : [
                101.17410278320312,
                13.923847198486328,
                141.18968200683594
            ],
            "min" : [
                -103.93484497070312,
                -57.17951202392578,
                -150.56813049316406
            ],
            "type" : "VEC3"
        },
        {
            "bufferView" : 8,
            "componentType" : 5126,
            "count" : 1520,
            "type" : "VEC3"
        },
        {
            "bufferView" : 9,
            "componentType" : 5126,
            "count" : 1520,
            "type" : "VEC2"
        },
        {
            "bufferView" : 10,
            "componentType" : 5126,
            "count" : 1520,
            "type" : "VEC2"
        },
        {
            "bufferView" : 11,
            "componentType" : 5123,
            "count" : 2280,
            "type" : "SCALAR"
        }
    ],
    "bufferViews" : [
        {
            "buffer" : 0,
            "byteLength" : 20856,
            "byteOffset" : 0
        },
        {
            "buffer" : 0,
            "byteLength" : 20856,
            "byteOffset" : 20856
        },
        {
            "buffer" : 0,
            "byteLength" : 13904,
            "byteOffset" : 41712
        },
        {
            "buffer" : 0,
            "byteLength" : 13904,
            "byteOffset" : 55616
        },
        {
            "buffer" : 0,
            "byteLength" : 5952,
            "byteOffset" : 69520
        },
        {
            "buffer" : 0,
            "byteLength" : 702,
            "byteOffset" : 75472
        },
        {
            "buffer" : 0,
            "byteLength" : 31588,
            "byteOffset" : 76176
        },
        {
            "buffer" : 0,
            "byteLength" : 18240,
            "byteOffset" : 107764
        },
        {
            "buffer" : 0,
            "byteLength" : 18240,
            "byteOffset" : 126004
        },
        {
            "buffer" : 0,
            "byteLength" : 12160,
            "byteOffset" : 144244
        },
        {
            "buffer" : 0,
            "byteLength" : 12160,
            "byteOffset" : 156404
        },
        {
            "buffer" : 0,
            "byteLength" : 4560,
            "byteOffset" : 168564
        },
        {
            "buffer" : 0,
            "byteLength" : 31745,
            "byteOffset" : 173124
        }
    ],
    "samplers" : [
        {
            "magFilter" : 9729,
            "minFilter" : 9987
        }
    ],
    "buffers" : [
        {
            "byteLength" : 204872,
            "uri" : "data:application/octet-stream;base64,"
        }
    ]
}
