{
    "asset" : {
        "generator" : "Khronos glTF Blender I/O v1.6.16",
        "version" : "2.0"
    },
    "scene" : 0,
    "scenes" : [
        {
            "name" : "Scene",
            "nodes" : [
                5
            ]
        }
    ],
    "nodes" : [
        {
            "mesh" : 0,
            "name" : "SHTV_Model_Car_Ambulance_SHTV_Material_Cars_Red_0",
            "rotation" : [
                0,
                0.6504174470901489,
                0,
                0.7595770955085754
            ],
            "scale" : [
                0.8899412751197815,
                0.8899412751197815,
                0.8899412751197815
            ],
            "translation" : [
                -117.38744354248047,
                0,
                -22.714359283447266
            ]
        },
        {
            "children" : [
                0
            ],
            "name" : "SHTV_Model_Car_Ambulance"
        },
        {
            "children" : [
                1
            ],
            "name" : "SHTV_Prefab_Car_Ambilance",
            "rotation" : [
                0,
                0.07841445505619049,
                0,
                0.9969208240509033
            ],
            "translation" : [
                119.49515533447266,
                0,
                4.081964492797852
            ]
        },
        {
            "children" : [
                2
            ],
            "name" : "RootNode"
        },
        {
            "children" : [
                3
            ],
            "name" : "CarsSketchfabFree.fbx",
            "rotation" : [
                0.7071068286895752,
                0,
                0,
                0.7071068286895752
            ],
            "scale" : [
                0.009999999776482582,
                0.009999999776482582,
                0.009999999776482582
            ]
        },
        {
            "children" : [
                4
            ],
            "name" : "Sketchfab_model",
            "rotation" : [
                -0.7071068286895752,
                0,
                0,
                0.7071068286895752
            ],
            "scale" : [
                0.42545753717422485,
                0.42545753717422485,
                0.42545753717422485
            ]
        }
    ],
    "materials" : [
        {
            "doubleSided" : true,
            "emissiveFactor" : [
                1,
                1,
                1
            ],
            "emissiveTexture" : {
                "index" : 0
            },
            "name" : "SHTV_Material_Cars_Red.001",
            "pbrMetallicRoughness" : {
                "baseColorTexture" : {
                    "index" : 1
                },
                "metallicFactor" : 0,
                "roughnessFactor" : 0.8211145401000977
            }
        },
        {
            "doubleSided" : true,
            "emissiveFactor" : [
                1,
                1,
                1
            ],
            "emissiveTexture" : {
                "index" : 2
            },
            "name" : "SHTV_Material_Cars_Gray.003",
            "pbrMetallicRoughness" : {
                "baseColorTexture" : {
                    "index" : 3
                },
                "metallicFactor" : 0,
                "roughnessFactor" : 0.8211145401000977
            }
        }
    ],
    "meshes" : [
        {
            "name" : "SHTV_Model_Car_Ambulance_SHTV_Material_Cars_Red_0.001",
            "primitives" : [
                {
                    "attributes" : {
                        "POSITION" : 0,
                        "NORMAL" : 1,
                        "TEXCOORD_0" : 2,
                        "TEXCOORD_1" : 3
                    },
                    "indices" : 4,
                    "material" : 0
                },
                {
                    "attributes" : {
                        "POSITION" : 5,
                        "NORMAL" : 6,
                        "TEXCOORD_0" : 7,
                        "TEXCOORD_1" : 8
                    },
                    "indices" : 9,
                    "material" : 1
                }
            ]
        }
    ],
    "textures" : [
        {
            "sampler" : 0,
            "source" : 0
        },
        {
            "sampler" : 0,
            "source" : 1
        },
        {
            "sampler" : 0,
            "source" : 0
        },
        {
            "sampler" : 0,
            "source" : 2
        }
    ],
    "images" : [
        {
            "bufferView" : 5,
            "mimeType" : "image/png",
            "name" : "SHTV_Material_Cars_Red_emissive"
        },
        {
            "bufferView" : 6,
            "mimeType" : "image/png",
            "name" : "SHTV_Material_Cars_Red_baseColor"
        },
        {
            "bufferView" : 12,
            "mimeType" : "image/png",
            "name" : "SHTV_Material_Cars_Gray_baseColor"
        }
    ],
    "accessors" : [
        {
            "bufferView" : 0,
            "componentType" : 5126,
            "count" : 3422,
            "max" : [
                121.11003875732422,
                184.40887451171875,
                219.7495880126953
            ],
            "min" : [
                -120.26081848144531,
                -79.53131103515625,
                -270.4438171386719
            ],
            "type" : "VEC3"
        },
        {
            "bufferView" : 1,
            "componentType" : 5126,
            "count" : 3422,
            "type" : "VEC3"
        },
        {
            "bufferView" : 2,
            "componentType" : 5126,
            "count" : 3422,
            "type" : "VEC2"
        },
        {
            "bufferView" : 3,
            "componentType" : 5126,
            "count" : 3422,
            "type" : "VEC2"
        },
        {
            "bufferView" : 4,
            "componentType" : 5123,
            "count" : 5742,
            "type" : "SCALAR"
        },
        {
            "bufferView" : 7,
            "componentType" : 5126,
            "count" : 2136,
            "max" : [
                104.19571685791016,
                -9.464073181152344,
                171.181884765625
            ],
            "min" : [
                -103.3465347290039,
                -86.57952880859375,
                -173.30941772460938
            ],
            "type" : "VEC3"
        },
        {
            "bufferView" : 8,
            "componentType" : 5126,
            "count" : 2136,
            "type" : "VEC3"
        },
        {
            "bufferView" : 9,
            "componentType" : 5126,
            "count" : 2136,
            "type" : "VEC2"
        },
        {
            "bufferView" : 10,
            "componentType" : 5126,
            "count" : 2136,
            "type" : "VEC2"
        },
        {
            "bufferView" : 11,
            "componentType" : 5123,
            "count" : 3216,
            "type" : "SCALAR"
        }
    ],
    "bufferViews" : [
        {
            "buffer" : 0,
            "byteLength" : 41064,
            "byteOffset" : 0
        },
        {
            "buffer" : 0,
            "byteLength" : 41064,
            "byteOffset" : 41064
        },
        {
            "buffer" : 0,
            "byteLength" : 27376,
            "byteOffset" : 82128
        },
        {
            "buffer" : 0,
            "byteLength" : 27376,
            "byteOffset" : 109504
        },
        {
            "buffer" : 0,
            "byteLength" : 11484,
            "byteOffset" : 136880
        },
        {
            "buffer" : 0,
            "byteLength" : 702,
            "byteOffset" : 148364
        },
        {
            "buffer" : 0,
            "byteLength" : 31516,
            "byteOffset" : 149068
        },
        {
            "buffer" : 0,
            "byteLength" : 25632,
            "byteOffset" : 180584
        },
        {
            "buffer" : 0,
            "byteLength" : 25632,
            "byteOffset" : 206216
        },
        {
            "buffer" : 0,
            "byteLength" : 17088,
            "byteOffset" : 231848
        },
        {
            "buffer" : 0,
            "byteLength" : 17088,
            "byteOffset" : 248936
        },
        {
            "buffer" : 0,
            "byteLength" : 6432,
            "byteOffset" : 266024
        },
        {
            "buffer" : 0,
            "byteLength" : 31745,
            "byteOffset" : 272456
        }
    ],
    "samplers" : [
        {
            "magFilter" : 9729,
            "minFilter" : 9987
        }
    ],
    "buffers" : [
        {
            "byteLength" : 304204,
            "uri" : "data:application/octet-stream;base64,"
        }
    ]
}
