{
    "asset" : {
        "generator" : "Khronos glTF Blender I/O v1.6.16",
        "version" : "2.0"
    },
    "scene" : 0,
    "scenes" : [
        {
            "name" : "Scene",
            "nodes" : [
                2
            ]
        }
    ],
    "nodes" : [
        {
            "mesh" : 0,
            "name" : "SHTV_Model_Car_Sedan_SHTV_Material_Cars_Green_0",
            "rotation" : [
                0,
                0.7757411003112793,
                0,
                0.6310513615608215
            ],
            "scale" : [
                0.004127892665565014,
                0.004127886146306992,
                0.004127892665565014
            ],
            "translation" : [
                358.7291259765625,
                0,
                -205.696533203125
            ]
        },
        {
            "children" : [
                0
            ],
            "name" : "SHTV_Model_Car_Sedan",
            "translation" : [
                -3.814697265625e-05,
                0,
                2.288818359375e-05
            ]
        },
        {
            "children" : [
                1
            ],
            "name" : "SHTV_Prefab_Car_Sedan",
            "rotation" : [
                0,
                -0.10415802896022797,
                0,
                0.9945607781410217
            ],
            "translation" : [
                -393.562255859375,
                0,
                126.91075897216797
            ]
        }
    ],
    "materials" : [
        {
            "doubleSided" : true,
            "emissiveFactor" : [
                1,
                1,
                1
            ],
            "emissiveTexture" : {
                "index" : 0
            },
            "name" : "SHTV_Material_Cars_Green",
            "pbrMetallicRoughness" : {
                "baseColorTexture" : {
                    "index" : 1
                },
                "metallicFactor" : 0,
                "roughnessFactor" : 0.8211145401000977
            }
        },
        {
            "doubleSided" : true,
            "emissiveFactor" : [
                1,
                1,
                1
            ],
            "emissiveTexture" : {
                "index" : 2
            },
            "name" : "SHTV_Material_Cars_Gray.002",
            "pbrMetallicRoughness" : {
                "baseColorTexture" : {
                    "index" : 3
                },
                "metallicFactor" : 0,
                "roughnessFactor" : 0.8211145401000977
            }
        }
    ],
    "meshes" : [
        {
            "name" : "SHTV_Model_Car_Sedan_SHTV_Material_Cars_Green_0",
            "primitives" : [
                {
                    "attributes" : {
                        "POSITION" : 0,
                        "NORMAL" : 1,
                        "TEXCOORD_0" : 2,
                        "TEXCOORD_1" : 3
                    },
                    "indices" : 4,
                    "material" : 0
                },
                {
                    "attributes" : {
                        "POSITION" : 5,
                        "NORMAL" : 6,
                        "TEXCOORD_0" : 7,
                        "TEXCOORD_1" : 8
                    },
                    "indices" : 9,
                    "material" : 1
                }
            ]
        }
    ],
    "textures" : [
        {
            "sampler" : 0,
            "source" : 0
        },
        {
            "sampler" : 0,
            "source" : 1
        },
        {
            "sampler" : 0,
            "source" : 0
        },
        {
            "sampler" : 0,
            "source" : 2
        }
    ],
    "images" : [
        {
            "bufferView" : 5,
            "mimeType" : "image/png",
            "name" : "SHTV_Material_Cars_Red_emissive"
        },
        {
            "bufferView" : 6,
            "mimeType" : "image/png",
            "name" : "SHTV_Material_Cars_Green_baseColor"
        },
        {
            "bufferView" : 12,
            "mimeType" : "image/png",
            "name" : "SHTV_Material_Cars_Gray_baseColor"
        }
    ],
    "accessors" : [
        {
            "bufferView" : 0,
            "componentType" : 5126,
            "count" : 1730,
            "max" : [
                113.55876159667969,
                129.3293914794922,
                205.82411193847656
            ],
            "min" : [
                -113.01336669921875,
                -36.00876998901367,
                -225.45132446289062
            ],
            "type" : "VEC3"
        },
        {
            "bufferView" : 1,
            "componentType" : 5126,
            "count" : 1730,
            "type" : "VEC3"
        },
        {
            "bufferView" : 2,
            "componentType" : 5126,
            "count" : 1730,
            "type" : "VEC2"
        },
        {
            "bufferView" : 3,
            "componentType" : 5126,
            "count" : 1730,
            "type" : "VEC2"
        },
        {
            "bufferView" : 4,
            "componentType" : 5123,
            "count" : 2628,
            "type" : "SCALAR"
        },
        {
            "bufferView" : 7,
            "componentType" : 5126,
            "count" : 1520,
            "max" : [
                102.82720947265625,
                14.604175567626953,
                152.1840057373047
            ],
            "min" : [
                -102.28182983398438,
                -56.49918746948242,
                -154.38352966308594
            ],
            "type" : "VEC3"
        },
        {
            "bufferView" : 8,
            "componentType" : 5126,
            "count" : 1520,
            "type" : "VEC3"
        },
        {
            "bufferView" : 9,
            "componentType" : 5126,
            "count" : 1520,
            "type" : "VEC2"
        },
        {
            "bufferView" : 10,
            "componentType" : 5126,
            "count" : 1520,
            "type" : "VEC2"
        },
        {
            "bufferView" : 11,
            "componentType" : 5123,
            "count" : 2280,
            "type" : "SCALAR"
        }
    ],
    "bufferViews" : [
        {
            "buffer" : 0,
            "byteLength" : 20760,
            "byteOffset" : 0
        },
        {
            "buffer" : 0,
            "byteLength" : 20760,
            "byteOffset" : 20760
        },
        {
            "buffer" : 0,
            "byteLength" : 13840,
            "byteOffset" : 41520
        },
        {
            "buffer" : 0,
            "byteLength" : 13840,
            "byteOffset" : 55360
        },
        {
            "buffer" : 0,
            "byteLength" : 5256,
            "byteOffset" : 69200
        },
        {
            "buffer" : 0,
            "byteLength" : 702,
            "byteOffset" : 74456
        },
        {
            "buffer" : 0,
            "byteLength" : 31752,
            "byteOffset" : 75160
        },
        {
            "buffer" : 0,
            "byteLength" : 18240,
            "byteOffset" : 106912
        },
        {
            "buffer" : 0,
            "byteLength" : 18240,
            "byteOffset" : 125152
        },
        {
            "buffer" : 0,
            "byteLength" : 12160,
            "byteOffset" : 143392
        },
        {
            "buffer" : 0,
            "byteLength" : 12160,
            "byteOffset" : 155552
        },
        {
            "buffer" : 0,
            "byteLength" : 4560,
            "byteOffset" : 167712
        },
        {
            "buffer" : 0,
            "byteLength" : 31745,
            "byteOffset" : 172272
        }
    ],
    "samplers" : [
        {
            "magFilter" : 9729,
            "minFilter" : 9987
        }
    ],
    "buffers" : [
        {
            "byteLength" : 204020,
            "uri" : "data:application/octet-stream;base64,"
        }
    ]
}
