{
    "asset" : {
        "generator" : "Khronos glTF Blender I/O v1.6.16",
        "version" : "2.0"
    },
    "scene" : 0,
    "scenes" : [
        {
            "name" : "Scene",
            "nodes" : [
                2
            ]
        }
    ],
    "nodes" : [
        {
            "mesh" : 0,
            "name" : "SHTV_Model_Car_Police_SHTV_Material_Cars_Blue_0",
            "rotation" : [
                0,
                0.7245997786521912,
                0,
                0.6891699433326721
            ],
            "scale" : [
                0.003678567474707961,
                0.0036785658448934555,
                0.003678567474707961
            ],
            "translation" : [
                134.6210479736328,
                0,
                -83.1961898803711
            ]
        },
        {
            "children" : [
                0
            ],
            "name" : "SHTV_Model_Car_Police",
            "translation" : [
                0,
                0,
                -5.7220458984375e-06
            ]
        },
        {
            "children" : [
                1
            ],
            "name" : "SHTV_Prefab_Car_Police",
            "rotation" : [
                0,
                -0.022192146629095078,
                0,
                0.9997537136077881
            ],
            "translation" : [
                -138.18014526367188,
                0,
                77.14065551757812
            ]
        }
    ],
    "materials" : [
        {
            "doubleSided" : true,
            "emissiveFactor" : [
                1,
                1,
                1
            ],
            "emissiveTexture" : {
                "index" : 0
            },
            "name" : "SHTV_Material_Cars_Blue",
            "pbrMetallicRoughness" : {
                "baseColorTexture" : {
                    "index" : 1
                },
                "metallicFactor" : 0,
                "roughnessFactor" : 0.8211145401000977
            }
        }
    ],
    "meshes" : [
        {
            "name" : "SHTV_Model_Car_Police_SHTV_Material_Cars_Blue_0",
            "primitives" : [
                {
                    "attributes" : {
                        "POSITION" : 0,
                        "NORMAL" : 1,
                        "TEXCOORD_0" : 2,
                        "TEXCOORD_1" : 3
                    },
                    "indices" : 4,
                    "material" : 0
                }
            ]
        }
    ],
    "textures" : [
        {
            "sampler" : 0,
            "source" : 0
        },
        {
            "sampler" : 0,
            "source" : 1
        }
    ],
    "images" : [
        {
            "bufferView" : 5,
            "mimeType" : "image/png",
            "name" : "SHTV_Material_Cars_Red_emissive"
        },
        {
            "bufferView" : 6,
            "mimeType" : "image/png",
            "name" : "SHTV_Material_Cars_Blue_baseColor"
        }
    ],
    "accessors" : [
        {
            "bufferView" : 0,
            "componentType" : 5126,
            "count" : 4078,
            "max" : [
                114.5013427734375,
                146.91189575195312,
                200.09927368164062
            ],
            "min" : [
                -113.1536865234375,
                -61.53297424316406,
                -272.65594482421875
            ],
            "type" : "VEC3"
        },
        {
            "bufferView" : 1,
            "componentType" : 5126,
            "count" : 4078,
            "type" : "VEC3"
        },
        {
            "bufferView" : 2,
            "componentType" : 5126,
            "count" : 4078,
            "type" : "VEC2"
        },
        {
            "bufferView" : 3,
            "componentType" : 5126,
            "count" : 4078,
            "type" : "VEC2"
        },
        {
            "bufferView" : 4,
            "componentType" : 5123,
            "count" : 5886,
            "type" : "SCALAR"
        }
    ],
    "bufferViews" : [
        {
            "buffer" : 0,
            "byteLength" : 48936,
            "byteOffset" : 0
        },
        {
            "buffer" : 0,
            "byteLength" : 48936,
            "byteOffset" : 48936
        },
        {
            "buffer" : 0,
            "byteLength" : 32624,
            "byteOffset" : 97872
        },
        {
            "buffer" : 0,
            "byteLength" : 32624,
            "byteOffset" : 130496
        },
        {
            "buffer" : 0,
            "byteLength" : 11772,
            "byteOffset" : 163120
        },
        {
            "buffer" : 0,
            "byteLength" : 702,
            "byteOffset" : 174892
        },
        {
            "buffer" : 0,
            "byteLength" : 31645,
            "byteOffset" : 175596
        }
    ],
    "samplers" : [
        {
            "magFilter" : 9729,
            "minFilter" : 9987
        }
    ],
    "buffers" : [
        {
            "byteLength" : 207244,
            "uri" : "data:application/octet-stream;base64,"
        }
    ]
}
