{
  "accessors": [
    {
      "bufferView": 1,
      "componentType": 5126,
      "count": 2642,
      "max": [
        48.683708190917969,
        83.234687805175781,
        17.856857299804688
      ],
      "min": [
        -45.047725677490234,
        -0.15221291780471802,
        5.7833824157714844
      ],
      "type": "VEC3"
    },
    {
      "bufferView": 1,
      "byteOffset": 31704,
      "componentType": 5126,
      "count": 2642,
      "max": [
        0.99997729063034058,
        0.99963927268981934,
        1
      ],
      "min": [
        -0.99999356269836426,
        -0.99997633695602417,
        -1
      ],
      "type": "VEC3"
    },
    {
      "bufferView": 2,
      "componentType": 5126,
      "count": 2642,
      "max": [
        0.9980434775352478,
        0.99999964237213135,
        0.57953816652297974,
        1
      ],
      "min": [
        -0.99804359674453735,
        -0.99999970197677612,
        -0.9999997615814209,
        -1
      ],
      "type": "VEC4"
    },
    {
      "bufferView": 0,
      "componentType": 5125,
      "count": 13440,
      "max": [
        2641
      ],
      "min": [
        0
      ],
      "type": "SCALAR"
    }
  ],
  "asset": {
    "extras": {
      "author": "Alex (https://sketchfab.com/ape.cgart)",
      "license": "CC-BY-4.0 (http://creativecommons.org/licenses/by/4.0/)",
      "source": "https://sketchfab.com/models/15adb339f45f4620a111c43e33388ba4",
      "title": "Gold Star"
    },
    "generator": "Sketchfab-3.18.6",
    "version": "2.0"
  },
  "bufferViews": [
    {
      "buffer": 0,
      "byteLength": 53760,
      "byteOffset": 0,
      "name": "floatBufferViews",
      "target": 34963
    },
    {
      "buffer": 0,
      "byteLength": 63408,
      "byteOffset": 53760,
      "byteStride": 12,
      "name": "floatBufferViews",
      "target": 34962
    },
    {
      "buffer": 0,
      "byteLength": 42272,
      "byteOffset": 117168,
      "byteStride": 16,
      "name": "floatBufferViews",
      "target": 34962
    }
  ],
  "buffers": [
    {
      "byteLength": 159440,
      "uri": "scene.bin"
    }
  ],
  "materials": [
    {
      "doubleSided": true,
      "emissiveFactor": [
        0,
        0,
        0
      ],
      "name": "Gold",
      "pbrMetallicRoughness": {
        "baseColorFactor": [
          1,
          0.55640000000000001,
          0,
          1
        ],
        "metallicFactor": 0,
        "roughnessFactor": 0.92074838159999994
      }
    }
  ],
  "meshes": [
    {
      "name": "Star_Gold_0",
      "primitives": [
        {
          "attributes": {
            "NORMAL": 1,
            "POSITION": 0,
            "TANGENT": 2
          },
          "indices": 3,
          "material": 0,
          "mode": 4
        }
      ]
    }
  ],
  "nodes": [
    {
      "children": [
        1
      ],
      "name": "RootNode (gltf orientation matrix)",
      "rotation": [
        -0.70710678118654746,
        -0,
        -0,
        0.70710678118654757
      ]
    },
    {
      "children": [
        2
      ],
      "name": "RootNode (model correction matrix)"
    },
    {
      "children": [
        3
      ],
      "matrix": [
        1,
        0,
        0,
        0,
        0,
        0,
        1,
        0,
        0,
        -1,
        0,
        0,
        0,
        0,
        0,
        1
      ],
      "name": "edecf65fc3ac4d3d97015cca14c1a6b9.fbx"
    },
    {
      "children": [
        4
      ],
      "name": "RootNode"
    },
    {
      "children": [
        5
      ],
      "name": "Star"
    },
    {
      "mesh": 0,
      "name": "Star_Gold_0"
    }
  ],
  "scene": 0,
  "scenes": [
    {
      "name": "OSG_Scene",
      "nodes": [
        0
      ]
    }
  ]
}

