{
  "accessors": [
    {
      "bufferView": 2,
      "componentType": 5126,
      "count": 7684,
      "max": [
        1.01959228515625,
        0.03539353609085083,
        1.0159236192703247
      ],
      "min": [
        -1.0189788341522217,
        -0.7910516858100891,
        -1.020407795906067
      ],
      "type": "VEC3"
    },
    {
      "bufferView": 2,
      "byteOffset": 92208,
      "componentType": 5126,
      "count": 7684,
      "max": [
        1.0,
        1.0,
        1.0
      ],
      "min": [
        -1.0,
        -1.0,
        -1.0
      ],
      "type": "VEC3"
    },
    {
      "bufferView": 1,
      "componentType": 5126,
      "count": 7684,
      "max": [
        0.9875428676605225,
        1.0
      ],
      "min": [
        0.0,
        0.0
      ],
      "type": "VEC2"
    },
    {
      "bufferView": 0,
      "componentType": 5125,
      "count": 14451,
      "type": "SCALAR"
    },
    {
      "bufferView": 2,
      "byteOffset": 184416,
      "componentType": 5126,
      "count": 613,
      "max": [
        0.9877025485038757,
        -0.04536119103431702,
        0.9817516803741455
      ],
      "min": [
        -0.9870893359184265,
        -0.6754586696624756,
        -0.9862356185913086
      ],
      "type": "VEC3"
    },
    {
      "bufferView": 2,
      "byteOffset": 191772,
      "componentType": 5126,
      "count": 613,
      "max": [
        1.0,
        3.364112899362226e-06,
        1.0
      ],
      "min": [
        -1.0,
        -4.81112419947749e-06,
        -1.0
      ],
      "type": "VEC3"
    },
    {
      "bufferView": 1,
      "byteOffset": 61472,
      "componentType": 5126,
      "count": 613,
      "max": [
        0.9696866273880005,
        0.9022870659828186
      ],
      "min": [
        0.2825281023979187,
        0.13986781239509583
      ],
      "type": "VEC2"
    },
    {
      "bufferView": 0,
      "byteOffset": 57804,
      "componentType": 5125,
      "count": 1068,
      "type": "SCALAR"
    }
  ],
  "asset": {
    "extras": {
      "author": "Shalmon (https://sketchfab.com/nashalanandas)",
      "license": "CC-BY-4.0 (http://creativecommons.org/licenses/by/4.0/)",
      "source": "https://sketchfab.com/3d-models/building-08-137e64ef7c2f41af91f9e7c39eef3acd",
      "title": "Building 08"
    },
    "generator": "Sketchfab-12.66.0",
    "version": "2.0"
  },
  "bufferViews": [
    {
      "buffer": 0,
      "byteLength": 62076,
      "name": "floatBufferViews",
      "target": 34963
    },
    {
      "buffer": 0,
      "byteLength": 66376,
      "byteOffset": 62076,
      "byteStride": 8,
      "name": "floatBufferViews",
      "target": 34962
    },
    {
      "buffer": 0,
      "byteLength": 199128,
      "byteOffset": 128452,
      "byteStride": 12,
      "name": "floatBufferViews",
      "target": 34962
    }
  ],
  "buffers": [
    {
      "byteLength": 327580,
      "uri": "scene.bin"
    }
  ],
  "images": [
    {
      "uri": "textures/TexturesCom_BuildingsVenice0005_M_baseColor.png"
    },
    {
      "uri": "textures/TexturesCom_BuildingsVenice0005_M_metallicRoughness.png"
    }
  ],
  "materials": [
    {
      "doubleSided": true,
      "name": "TexturesCom_BuildingsVenice0005_M",
      "pbrMetallicRoughness": {
        "baseColorTexture": {
          "index": 0
        },
        "metallicRoughnessTexture": {
          "index": 1
        },
        "roughnessFactor": 0.5
      }
    },
    {
      "doubleSided": true,
      "name": "TexturesCom_BuildingsVenice0005_M.001",
      "pbrMetallicRoughness": {
        "baseColorTexture": {
          "index": 0
        },
        "metallicFactor": 0.0,
        "roughnessFactor": 0.0
      }
    }
  ],
  "meshes": [
    {
      "name": "Object_0",
      "primitives": [
        {
          "attributes": {
            "NORMAL": 1,
            "POSITION": 0,
            "TEXCOORD_0": 2
          },
          "indices": 3,
          "material": 0,
          "mode": 4
        }
      ]
    },
    {
      "name": "Object_1",
      "primitives": [
        {
          "attributes": {
            "NORMAL": 5,
            "POSITION": 4,
            "TEXCOORD_0": 6
          },
          "indices": 7,
          "material": 1,
          "mode": 4
        }
      ]
    }
  ],
  "nodes": [
    {
      "children": [
        1
      ],
      "matrix": [
        1.0,
        0.0,
        0.0,
        0.0,
        0.0,
        2.220446049250313e-16,
        -1.0,
        0.0,
        0.0,
        1.0,
        2.220446049250313e-16,
        0.0,
        0.0,
        0.0,
        0.0,
        1.0
      ],
      "name": "Sketchfab_model"
    },
    {
      "children": [
        2
      ],
      "name": "root"
    },
    {
      "children": [
        3
      ],
      "matrix": [
        1.0,
        0.0,
        0.0,
        0.0,
        0.0,
        2.220446049250313e-16,
        1.0,
        0.0,
        0.0,
        -1.0,
        2.220446049250313e-16,
        0.0,
        0.0,
        0.0,
        0.0,
        1.0
      ],
      "name": "GLTF_SceneRootNode"
    },
    {
      "children": [
        4,
        5
      ],
      "matrix": [
        1.2100025415420532,
        0.0,
        0.0,
        0.0,
        0.0,
        1.2100025415420532,
        0.0,
        0.0,
        0.0,
        0.0,
        1.2100025415420532,
        0.0,
        -1.1994163990020752,
        0.45717403292655945,
        -0.32359179854393005,
        1.0
      ],
      "name": "Plane_0"
    },
    {
      "mesh": 0,
      "name": "Object_4"
    },
    {
      "mesh": 1,
      "name": "Object_5"
    }
  ],
  "samplers": [
    {
      "magFilter": 9729,
      "minFilter": 9987,
      "wrapS": 33071,
      "wrapT": 33071
    },
    {
      "magFilter": 9729,
      "minFilter": 9987,
      "wrapS": 10497,
      "wrapT": 10497
    }
  ],
  "scene": 0,
  "scenes": [
    {
      "name": "Sketchfab_Scene",
      "nodes": [
        0
      ]
    }
  ],
  "textures": [
    {
      "sampler": 0,
      "source": 0
    },
    {
      "sampler": 1,
      "source": 1
    }
  ]
}
