<svg id="组件_3_1" data-name="组件 3 – 1" xmlns="http://www.w3.org/2000/svg" width="20" height="18" viewBox="0 0 20 18">
  <path id="路径_12" data-name="路径 12" d="M1.207.514A1.263,1.263,0,0,1,2.735.889L10.05,9.6,17.341.889a1.313,1.313,0,0,1,1.9-.161h0a1.515,1.515,0,0,1,.125,2.037l-8.217,9.783a.745.745,0,0,1-.225.268h0a1.26,1.26,0,0,1-1.879-.134L3.036,5.526V16.971a1.386,1.386,0,0,1-1.328,1.421h0A1.386,1.386,0,0,1,.38,16.971V1.854A1.414,1.414,0,0,1,1.207.514Z" transform="translate(-0.38 -0.391)" fill="#fff" fill-rule="evenodd"/>
  <path id="路径_11" data-name="路径 11" d="M7.705,1.2,1.156,9.032a1.521,1.521,0,0,0,.123,2.025h0a1.244,1.244,0,0,0,1.84-.16L7.46,5.729v6.153a1.379,1.379,0,0,0,1.325,1.438h0a1.376,1.376,0,0,0,1.3-1.438V2.026A1.376,1.376,0,0,0,8.784.588h0A1.3,1.3,0,0,0,7.705,1.2Z" transform="translate(9.916 4.679)" fill="#fff" fill-rule="evenodd"/>
</svg>
