<svg id="组件_4_1" data-name="组件 4 – 1" xmlns="http://www.w3.org/2000/svg" width="36" height="40" viewBox="0 0 36 40">
  <path id="路径_14" data-name="路径 14" d="M18.076,0a18.061,18.061,0,0,1,18,18.107c0,.3-.025.577-.025.878h.025A21.58,21.58,0,0,1,18.126,40V34.708h-.05c-9.947,0-18-6.6-18-16.6A18.046,18.046,0,0,1,18.076,0Z" transform="translate(-0.076)" fill="#f57c5a" fill-rule="evenodd"/>
  <path id="交叉_2" data-name="交叉 2" d="M26.322,34.708h-.05c-9.941,0-17.99-6.587-18-16.583,3.725-1.158,7.922-1.723,10.811.091C25.444,22.21,32.84,19.4,32.84,19.4s6.406-4.033,11.356-2.965q.075.826.076,1.671c0,.3-.024.577-.024.878h.024A21.578,21.578,0,0,1,26.322,40Z" transform="translate(-8.272 0)" fill="#e8542b"/>
</svg>
