<svg xmlns="http://www.w3.org/2000/svg" width="24" height="25.965" viewBox="0 0 24 25.965">
  <g id="站点" transform="translate(2 2)">
    <g id="路径_1" data-name="路径 1" transform="translate(-378.127 -313.735)" fill="#e8542b">
      <path d="M 388.126953125 327.7169799804688 C 385.9213562011719 327.7169799804688 384.126953125 325.9225769042969 384.126953125 323.7169799804688 C 384.126953125 321.5113830566406 385.9213562011719 319.7169799804688 388.126953125 319.7169799804688 C 390.3310546875 319.7169799804688 392.1254577636719 321.5110778808594 392.126953125 323.71630859375 C 392.126953125 325.9225769042969 390.3325500488281 327.7169799804688 388.126953125 327.7169799804688 Z" stroke="none"/>
      <path d="M 388.126953125 320.7169799804688 C 386.4726867675781 320.7169799804688 385.126953125 322.062744140625 385.126953125 323.7169799804688 C 385.126953125 325.3712768554688 386.4727478027344 326.7169799804688 388.126953125 326.7169799804688 C 389.7812194824219 326.7169799804688 391.126953125 325.3712768554688 391.126953125 323.7169799804688 C 391.1258239746094 322.062744140625 389.7800903320313 320.7169799804688 388.126953125 320.7169799804688 M 388.126953125 318.7169799804688 C 390.882080078125 318.7169799804688 393.1250610351563 320.9593505859375 393.126953125 323.7156066894531 C 393.126953125 326.4739990234375 390.8839721679688 328.7169799804688 388.126953125 328.7169799804688 C 385.3699340820313 328.7169799804688 383.126953125 326.4739990234375 383.126953125 323.7169799804688 C 383.126953125 320.9599609375 385.3699340820313 318.7169799804688 388.126953125 318.7169799804688 Z" stroke="none" fill="#fff"/>
    </g>
    <g id="路径_2" data-name="路径 2" transform="translate(-134.861 -78.364)" fill="#e8542b">
      <path d="M 144.9214935302734 101.3288650512695 C 143.4185791015625 101.3288650512695 141.9739074707031 100.7751159667969 140.8536224365234 99.76963043212891 C 137.4701538085938 96.72802734375 133.8610534667969 93.08802795410156 133.8610534667969 88.36481475830078 C 133.8610534667969 85.34164428710938 135.0620727539063 82.52356719970703 137.2428588867188 80.42971038818359 C 139.3003997802734 78.45286560058594 142.0032806396484 77.36403656005859 144.8533782958984 77.36403656005859 C 145.0071105957031 77.36403656005859 145.1632080078125 77.36722564697266 145.3173217773438 77.37352752685547 C 150.9522094726563 77.60340881347656 155.5785217285156 82.21794128417969 155.8495025634766 87.87894439697266 C 155.9626770019531 90.24681091308594 155.2606811523438 92.49531555175781 153.7034301757813 94.75303649902344 C 152.3720855712891 96.68325042724609 150.6169738769531 98.33066558837891 148.9186401367188 99.82341766357422 C 147.8144989013672 100.794189453125 146.3949279785156 101.3288650512695 144.9214935302734 101.3288650512695 Z M 144.8612060546875 84.09616851806641 C 142.6226806640625 84.09616851806641 140.8015289306641 85.91733551025391 140.8015289306641 88.15586090087891 C 140.8015289306641 90.39437866210938 142.6226806640625 92.21553802490234 144.8612060546875 92.21553802490234 C 147.0997314453125 92.21553802490234 148.9208984375 90.39437866210938 148.9208984375 88.15586090087891 C 148.9208984375 85.91733551025391 147.0997314453125 84.09616851806641 144.8612060546875 84.09616851806641 Z" stroke="none"/>
      <path d="M 144.8533935546875 78.36403656005859 C 142.2572326660156 78.36393737792969 139.8150329589844 79.34516906738281 137.9354400634766 81.15104675292969 C 135.9528350830078 83.05462646484375 134.8610534667969 85.61729431152344 134.8610534667969 88.36481475830078 C 134.8610534667969 92.67835998535156 138.2998046875 96.12918090820313 141.5215606689453 99.02542114257813 C 142.4887542724609 99.89350128173828 143.7051239013672 100.3288650512695 144.9214935302734 100.3288650512695 C 146.1137390136719 100.3288650512695 147.3046569824219 99.91090393066406 148.2584533691406 99.07230377197266 C 151.5672760009766 96.16402435302734 155.0770416259766 92.66363525390625 154.8506469726563 87.92678833007813 L 154.8506469726563 87.9267578125 C 154.6041564941406 82.77730560302734 150.3991241455078 78.5816650390625 145.2764892578125 78.37269592285156 C 145.1351776123047 78.36692047119141 144.9938659667969 78.36404418945313 144.8533935546875 78.36403656005859 M 144.8612060546875 93.21553802490234 C 142.0721588134766 93.21553802490234 139.8015289306641 90.94625091552734 139.8015289306641 88.15586090087891 C 139.8015289306641 85.36547088623047 142.0708160400391 83.09616851806641 144.8612060546875 83.09616851806641 C 147.6515960693359 83.09616851806641 149.9208984375 85.36547088623047 149.9208984375 88.15586090087891 C 149.9208984375 90.94625091552734 147.6502685546875 93.21553802490234 144.8612060546875 93.21553802490234 M 144.8529815673828 76.36403656005859 L 144.8529815673828 78.36403656005859 L 144.8531036376953 76.36403656005859 C 145.0211181640625 76.36404418945313 145.19091796875 76.36753082275391 145.3582305908203 76.37436676025391 C 148.3380584716797 76.49592590332031 151.1602935791016 77.74138641357422 153.3048095703125 79.88131713867188 C 155.4468231201172 82.01873779296875 156.7052764892578 84.842041015625 156.8483581542969 87.83113098144531 C 156.9723815917969 90.42612457275391 156.2129364013672 92.8759765625 154.526611328125 95.32083129882813 C 153.1335906982422 97.34043884277344 151.3253631591797 99.03939819335938 149.5788116455078 100.5745162963867 C 148.2921905517578 101.7057571411133 146.6380920410156 102.3288650512695 144.9214935302734 102.3288650512695 C 143.171630859375 102.3288650512695 141.48974609375 101.6842803955078 140.1856689453125 100.5138397216797 C 138.4923858642578 98.99163055419922 136.7363739013672 97.31827545166016 135.3567504882813 95.39057922363281 C 133.6773986816406 93.0440673828125 132.8610534667969 90.74592590332031 132.8610534667969 88.36481475830078 C 132.8610534667969 85.06682586669922 134.1712493896484 81.99257659912109 136.5502624511719 79.7083740234375 C 138.7947692871094 77.55191040039063 141.7435607910156 76.36403656005859 144.8529815673828 76.36403656005859 Z M 144.8612060546875 91.21553802490234 C 146.5483245849609 91.21553802490234 147.9208984375 89.84296417236328 147.9208984375 88.15586090087891 C 147.9208984375 86.46873474121094 146.5483245849609 85.09616851806641 144.8612060546875 85.09616851806641 C 143.1741027832031 85.09616851806641 141.8015289306641 86.46873474121094 141.8015289306641 88.15586090087891 C 141.8015289306641 89.84296417236328 143.1741027832031 91.21553802490234 144.8612060546875 91.21553802490234 Z" stroke="none" fill="#fff"/>
    </g>
  </g>
</svg>
