{
  "accessors": [
    {
      "bufferView": 2,
      "componentType": 5126,
      "count": 1136,
      "max": [
        6.504999160766602,
        3.343031644821167,
        2.5269477367401123
      ],
      "min": [
        -6.50640869140625,
        -0.01962447538971901,
        -7.266439437866211
      ],
      "type": "VEC3"
    },
    {
      "bufferView": 2,
      "byteOffset": 13632,
      "componentType": 5126,
      "count": 1136,
      "max": [
        1.0,
        0.9999318718910217,
        0.9997459053993225
      ],
      "min": [
        -1.0,
        -0.9999672174453735,
        -0.9999998807907104
      ],
      "type": "VEC3"
    },
    {
      "bufferView": 3,
      "componentType": 5126,
      "count": 1136,
      "max": [
        1.0,
        0.9928967952728271,
        0.999964714050293,
        1.0
      ],
      "min": [
        -1.0,
        -0.9996378421783447,
        -0.999994158744812,
        -1.0
      ],
      "type": "VEC4"
    },
    {
      "bufferView": 1,
      "componentType": 5126,
      "count": 1136,
      "max": [
        0.9987999796867371,
        0.9896000027656555
      ],
      "min": [
        0.0020000000949949026,
        0.0029000043869018555
      ],
      "type": "VEC2"
    },
    {
      "bufferView": 1,
      "byteOffset": 9088,
      "componentType": 5126,
      "count": 1136,
      "max": [
        0.9987999796867371,
        0.9896000027656555
      ],
      "min": [
        0.0020000000949949026,
        0.0029000043869018555
      ],
      "type": "VEC2"
    },
    {
      "bufferView": 1,
      "byteOffset": 18176,
      "componentType": 5126,
      "count": 1136,
      "max": [
        0.9987999796867371,
        0.9896000027656555
      ],
      "min": [
        0.0020000000949949026,
        0.0029000043869018555
      ],
      "type": "VEC2"
    },
    {
      "bufferView": 1,
      "byteOffset": 27264,
      "componentType": 5126,
      "count": 1136,
      "max": [
        0.9987999796867371,
        0.9896000027656555
      ],
      "min": [
        0.0020000000949949026,
        0.0029000043869018555
      ],
      "type": "VEC2"
    },
    {
      "bufferView": 1,
      "byteOffset": 36352,
      "componentType": 5126,
      "count": 1136,
      "max": [
        0.9987999796867371,
        0.9896000027656555
      ],
      "min": [
        0.0020000000949949026,
        0.0029000043869018555
      ],
      "type": "VEC2"
    },
    {
      "bufferView": 1,
      "byteOffset": 45440,
      "componentType": 5126,
      "count": 1136,
      "max": [
        0.9987999796867371,
        0.9896000027656555
      ],
      "min": [
        0.0020000000949949026,
        0.0029000043869018555
      ],
      "type": "VEC2"
    },
    {
      "bufferView": 1,
      "byteOffset": 54528,
      "componentType": 5126,
      "count": 1136,
      "max": [
        0.9987999796867371,
        0.9896000027656555
      ],
      "min": [
        0.0020000000949949026,
        0.0029000043869018555
      ],
      "type": "VEC2"
    },
    {
      "bufferView": 1,
      "byteOffset": 63616,
      "componentType": 5126,
      "count": 1136,
      "max": [
        0.9987999796867371,
        0.9896000027656555
      ],
      "min": [
        0.0020000000949949026,
        0.0029000043869018555
      ],
      "type": "VEC2"
    },
    {
      "bufferView": 1,
      "byteOffset": 72704,
      "componentType": 5126,
      "count": 1136,
      "max": [
        0.9987999796867371,
        0.9896000027656555
      ],
      "min": [
        0.0020000000949949026,
        0.0029000043869018555
      ],
      "type": "VEC2"
    },
    {
      "bufferView": 1,
      "byteOffset": 81792,
      "componentType": 5126,
      "count": 1136,
      "max": [
        0.9987999796867371,
        0.9896000027656555
      ],
      "min": [
        0.0020000000949949026,
        0.0029000043869018555
      ],
      "type": "VEC2"
    },
    {
      "bufferView": 0,
      "componentType": 5125,
      "count": 3342,
      "type": "SCALAR"
    }
  ],
  "asset": {
    "extras": {
      "author": "MaX3Dd (https://sketchfab.com/MaX3Dd)",
      "license": "CC-BY-4.0 (http://creativecommons.org/licenses/by/4.0/)",
      "source": "https://sketchfab.com/3d-models/low-poly-airplane-65cc7c4349174f7bbb20ed70206377b5",
      "title": "Low-poly Airplane"
    },
    "generator": "Sketchfab-12.67.0",
    "version": "2.0"
  },
  "bufferViews": [
    {
      "buffer": 0,
      "byteLength": 13368,
      "name": "floatBufferViews",
      "target": 34963
    },
    {
      "buffer": 0,
      "byteLength": 90880,
      "byteOffset": 13368,
      "byteStride": 8,
      "name": "floatBufferViews",
      "target": 34962
    },
    {
      "buffer": 0,
      "byteLength": 27264,
      "byteOffset": 104248,
      "byteStride": 12,
      "name": "floatBufferViews",
      "target": 34962
    },
    {
      "buffer": 0,
      "byteLength": 18176,
      "byteOffset": 131512,
      "byteStride": 16,
      "name": "floatBufferViews",
      "target": 34962
    }
  ],
  "buffers": [
    {
      "byteLength": 149688,
      "uri": "scene.bin"
    }
  ],
  "images": [
    {
      "uri": "textures/airplane_baseColor.png"
    },
    {
      "uri": "textures/airplane_normal.png"
    }
  ],
  "materials": [
    {
      "doubleSided": true,
      "name": "airplane",
      "normalTexture": {
        "index": 1
      },
      "pbrMetallicRoughness": {
        "baseColorTexture": {
          "index": 0
        },
        "metallicFactor": 0.0
      }
    }
  ],
  "meshes": [
    {
      "name": "awionetka_airplane_0",
      "primitives": [
        {
          "attributes": {
            "NORMAL": 1,
            "POSITION": 0,
            "TANGENT": 2,
            "TEXCOORD_0": 3,
            "TEXCOORD_1": 4,
            "TEXCOORD_2": 5,
            "TEXCOORD_3": 6,
            "TEXCOORD_4": 7,
            "TEXCOORD_5": 8,
            "TEXCOORD_6": 9,
            "TEXCOORD_7": 10,
            "TEXCOORD_8": 11,
            "TEXCOORD_9": 12
          },
          "indices": 13,
          "material": 0,
          "mode": 4
        }
      ]
    }
  ],
  "nodes": [
    {
      "children": [
        1
      ],
      "matrix": [
        1.0,
        0.0,
        0.0,
        0.0,
        0.0,
        2.220446049250313e-16,
        -1.0,
        0.0,
        0.0,
        1.0,
        2.220446049250313e-16,
        0.0,
        0.0,
        0.0,
        0.0,
        1.0
      ],
      "name": "Sketchfab_model"
    },
    {
      "children": [
        2
      ],
      "matrix": [
        1.0,
        0.0,
        0.0,
        0.0,
        0.0,
        0.0,
        1.0,
        0.0,
        0.0,
        -1.0,
        0.0,
        0.0,
        0.0,
        0.0,
        0.0,
        1.0
      ],
      "name": "airplane.fbx"
    },
    {
      "children": [
        3
      ],
      "name": "RootNode"
    },
    {
      "children": [
        4
      ],
      "matrix": [
        10.0,
        0.0,
        0.0,
        0.0,
        0.0,
        9.99999999999999,
        4.371139006309477e-07,
        0.0,
        0.0,
        -4.371139006309477e-07,
        9.99999999999999,
        0.0,
        -0.0070476531982421875,
        16.617034912109375,
        -23.697458267211914,
        1.0
      ],
      "name": "awionetka"
    },
    {
      "children": [
        5
      ],
      "matrix": [
        1.0,
        0.0,
        -0.0,
        0.0,
        0.0,
        1.0,
        0.0,
        0.0,
        0.0,
        0.0,
        1.0,
        0.0,
        0.0007047653198242188,
        -1.6617035865783691,
        2.3697457313537598,
        1.0
      ],
      "name": "Object_4"
    },
    {
      "mesh": 0,
      "name": "awionetka_airplane_0"
    }
  ],
  "samplers": [
    {
      "magFilter": 9729,
      "minFilter": 9987,
      "wrapS": 10497,
      "wrapT": 10497
    }
  ],
  "scene": 0,
  "scenes": [
    {
      "name": "Sketchfab_Scene",
      "nodes": [
        0
      ]
    }
  ],
  "textures": [
    {
      "sampler": 0,
      "source": 0
    },
    {
      "sampler": 0,
      "source": 1
    }
  ]
}
