{
	"asset":{
		"version":"2.0",
		"generator":"Created using the official Cinema 4D glTF Exporter 1.000x284978"
	},
	"scenes":[{
		"nodes":[0]
	}],
	"nodes":[{
		"name":"空白.1",
		"translation":[-9.244463733058732e-33,
		0.0,
		-0.12984956800937653],
		"rotation":[0.0,
		0.0,
		0.0,
		-1.0],
		"scale":[1.0,
		1.0,
		1.0],
		"children":[1,
		2,
		3]
	},
	{
		"name":"球体",
		"translation":[9.244463733058732e-33,
		0.0,
		0.4632583558559418],
		"rotation":[0.0,
		0.0,
		0.0,
		-1.0],
		"scale":[1.0,
		1.0,
		1.0],
		"mesh":0
	},
	{
		"name":"圆柱体.5",
		"translation":[-9.244463733058732e-33,
		0.0,
		0.2048485279083252],
		"rotation":[0.0,
		0.0,
		0.0,
		-1.0],
		"scale":[1.0,
		1.0,
		1.0],
		"mesh":1
	},
	{
		"name":"圆柱体.6",
		"translation":[9.244463733058732e-33,
		0.0,
		-0.048348311334848407],
		"rotation":[0.0,
		0.0,
		0.0,
		-1.0],
		"scale":[1.0,
		1.0,
		1.0],
		"mesh":2
	}],
	"materials":[{
		"pbrMetallicRoughness":{
			"baseColorFactor":[0.05159999999999995,
			0.17286000000000024,
			0.86,
			1.0],
			"metallicFactor":0.0,
			"roughnessFactor":0.5
		},
		"emissiveFactor":[0.0,
		0.0,
		0.0],
		"alphaMode":"OPAQUE",
		"doubleSided":true,
		"name":"材质"
	},
	{
		"pbrMetallicRoughness":{
			"baseColorFactor":[0.05159999999999995,
			0.17286000000000024,
			0.86,
			1.0],
			"metallicFactor":0.0,
			"roughnessFactor":0.5
		},
		"emissiveFactor":[0.0,
		0.0,
		0.0],
		"alphaMode":"OPAQUE",
		"doubleSided":true,
		"name":"材质"
	}],
	"meshes":[{
		"name":"球体",
		"primitives":[{
			"material":0,
			"attributes":{
				"POSITION":1,
				"NORMAL":2,
				"TEXCOORD_0":3
			},
			"indices":0
		}]
	},
	{
		"name":"圆柱体.5",
		"primitives":[{
			"material":1,
			"attributes":{
				"POSITION":5,
				"NORMAL":6,
				"TEXCOORD_0":7
			},
			"indices":4
		}]
	},
	{
		"name":"圆柱体.6",
		"primitives":[{
			"material":1,
			"attributes":{
				"POSITION":9,
				"NORMAL":10,
				"TEXCOORD_0":11
			},
			"indices":8
		}]
	}],
	"accessors":[{
		"bufferView":0,
		"type":"SCALAR",
		"componentType":5123,
		"count":2880,
		"byteOffset":0,
		"min":[0],
		"max":[558]
	},
	{
		"bufferView":1,
		"type":"VEC3",
		"componentType":5126,
		"count":559,
		"byteOffset":0,
		"min":[-0.20000000298023225,
		-0.20000000298023225,
		-0.20000000298023225],
		"max":[0.20000000298023225,
		0.20000000298023225,
		0.20000000298023225]
	},
	{
		"bufferView":1,
		"type":"VEC3",
		"componentType":5126,
		"count":559,
		"byteOffset":12,
		"min":[-1.0,
		-1.0,
		-1.0],
		"max":[1.0,
		1.0,
		1.0]
	},
	{
		"bufferView":1,
		"type":"VEC2",
		"componentType":5126,
		"count":559,
		"byteOffset":24,
		"min":[0.0,
		0.0],
		"max":[1.0,
		1.0]
	},
	{
		"bufferView":2,
		"type":"SCALAR",
		"componentType":5123,
		"count":384,
		"byteOffset":0,
		"min":[0],
		"max":[131]
	},
	{
		"bufferView":3,
		"type":"VEC3",
		"componentType":5126,
		"count":132,
		"byteOffset":0,
		"min":[-0.20000000298023225,
		-0.20000000298023225,
		-0.2586015462875366],
		"max":[0.20000000298023225,
		0.20000000298023225,
		0.2586015462875366]
	},
	{
		"bufferView":3,
		"type":"VEC3",
		"componentType":5126,
		"count":132,
		"byteOffset":12,
		"min":[-0.9994615316390991,
		-0.9994615316390991,
		-1.0],
		"max":[0.9994615316390991,
		0.9994615316390991,
		1.0]
	},
	{
		"bufferView":3,
		"type":"VEC2",
		"componentType":5126,
		"count":132,
		"byteOffset":24,
		"min":[0.0,
		0.0],
		"max":[1.0,
		1.0]
	},
	{
		"bufferView":4,
		"type":"SCALAR",
		"componentType":5123,
		"count":1536,
		"byteOffset":0,
		"min":[0],
		"max":[327]
	},
	{
		"bufferView":5,
		"type":"VEC3",
		"componentType":5126,
		"count":328,
		"byteOffset":0,
		"min":[-0.25,
		-0.25,
		-0.03185855597257614],
		"max":[0.25,
		0.25,
		0.03185855597257614]
	},
	{
		"bufferView":5,
		"type":"VEC3",
		"componentType":5126,
		"count":328,
		"byteOffset":12,
		"min":[-0.9914421439170837,
		-0.9914421439170837,
		-1.0],
		"max":[0.991442084312439,
		0.9914421439170837,
		1.0]
	},
	{
		"bufferView":5,
		"type":"VEC2",
		"componentType":5126,
		"count":328,
		"byteOffset":24,
		"min":[0.0,
		0.0],
		"max":[1.0,
		1.0]
	}],
	"bufferViews":[{
		"buffer":0,
		"byteOffset":0,
		"byteLength":5760,
		"target":34963
	},
	{
		"buffer":0,
		"byteOffset":5760,
		"byteLength":17888,
		"target":34962,
		"byteStride":32
	},
	{
		"buffer":1,
		"byteOffset":0,
		"byteLength":768,
		"target":34963
	},
	{
		"buffer":1,
		"byteOffset":768,
		"byteLength":4224,
		"target":34962,
		"byteStride":32
	},
	{
		"buffer":2,
		"byteOffset":0,
		"byteLength":3072,
		"target":34963
	},
	{
		"buffer":2,
		"byteOffset":3072,
		"byteLength":10496,
		"target":34962,
		"byteStride":32
	}],
	"buffers":[{
		"uri":"data:application/octet-stream;base64,",
		"byteLength":23648
	},
	{
		"uri":"data:application/octet-stream;base64,",
		"byteLength":4992
	},
	{
		"uri":"data:application/octet-stream;base64,",
		"byteLength":13568
	}]
}