<?xml version="1.0" encoding="UTF-8"?>
<!DOCTYPE svg PUBLIC "-//W3C//DTD SVG 1.1//EN" "http://www.w3.org/Graphics/SVG/1.1/DTD/svg11.dtd">
<!-- Creator: CorelDRAW 2020 (64-Bit) -->
<svg xmlns="http://www.w3.org/2000/svg" xml:space="preserve" width="35px" height="35px" version="1.1" style="shape-rendering:geometricPrecision; text-rendering:geometricPrecision; image-rendering:optimizeQuality; fill-rule:evenodd; clip-rule:evenodd"
viewBox="0 0 1.596 1.596"
 xmlns:xlink="http://www.w3.org/1999/xlink"
 xmlns:xodm="http://www.corel.com/coreldraw/odm/2003">
 <defs>
  <style type="text/css">
   <![CDATA[
    .fil0 {fill:none}
    .fil2 {fill:#FEFEFE}
    .fil1 {fill:#E8542B}
   ]]>
  </style>
 </defs>
 <g id="图层_x0020_1">
  <metadata id="CorelCorpID_0Corel-Layer"/>
  <rect class="fil0" width="1.596" height="1.596" rx="0.172" ry="0.165"/>
  <g id="_2500245817680">
   <path class="fil1" d="M0.798 0c0.398,0 0.722,0.323 0.722,0.722 0,0.012 -0.001,0.023 -0.001,0.035l0.001 0c-0.006,0.422 -0.315,0.771 -0.72,0.838l0 -0.211 -0.002 0c-0.399,0 -0.722,-0.263 -0.722,-0.662 0,-0.399 0.323,-0.722 0.722,-0.722z"/>
   <path class="fil2" d="M0.424 0.399c0.02,-0.009 0.045,-0.004 0.061,0.014l0.292 0.324 0.291 -0.325c0.02,-0.021 0.053,-0.024 0.076,-0.005l0 0c0.022,0.019 0.025,0.054 0.005,0.075l-0.328 0.366c-0.002,0.004 -0.005,0.007 -0.009,0.01l0 0c-0.022,0.019 -0.056,0.017 -0.075,-0.005l-0.24 -0.267 0 0.426c0,0.03 -0.024,0.054 -0.053,0.054l0 0c-0.029,0 -0.053,-0.024 -0.053,-0.054l0 -0.564c0,-0.022 0.013,-0.041 0.033,-0.049z"/>
   <g>
    <path class="fil2" d="M1.108 0.611l-0.267 0.294c-0.02,0.022 -0.017,0.057 0.005,0.076l0 0c0.022,0.019 0.056,0.016 0.075,-0.006l0.177 -0.194 0 0.231c0,0.03 0.024,0.054 0.054,0.054l0 0c0.029,0 0.053,-0.024 0.053,-0.054l0 -0.37c0,-0.03 -0.024,-0.054 -0.053,-0.054l0 0c-0.018,0 -0.034,0.009 -0.044,0.023z"/>
    <path class="fil2" d="M0.413 0.396c0.02,-0.009 0.046,-0.004 0.061,0.014l0.292 0.325 0.291 -0.325c0.02,-0.022 0.054,-0.025 0.076,-0.006l0 0c0.022,0.02 0.025,0.054 0.005,0.076l-0.328 0.365c-0.002,0.004 -0.005,0.007 -0.009,0.01l0 0c-0.022,0.02 -0.056,0.017 -0.075,-0.005l-0.24 -0.267 0 0.427c0,0.029 -0.024,0.053 -0.053,0.053l0 0c-0.029,0 -0.053,-0.024 -0.053,-0.053l0 -0.564c0,-0.023 0.013,-0.042 0.033,-0.05z"/>
   </g>
  </g>
 </g>
</svg>
